<?xml version="1.0" encoding="UTF-8"?>
<svg id="Layer_2" data-name="Layer 2" xmlns="http://www.w3.org/2000/svg" viewBox="0 0 942.52 902.1">
  <defs>
    <style>
      .cls-1 {
        fill: #1733ff;
      }
    </style>
  </defs>
  <g id="Layer_1-2" data-name="Layer 1">
    <g>
      <path class="cls-1" d="M719.08,535.95c14.25,9.31,30.3,16.5,47.6,17.64-6.87,19.34-8.86,40.23-7.03,60.77,1.74,19.55,12.19,40.48,15.39,60.41,14.08,87.64-63.24,140.87-144.49,126.87-72.5-12.5-106.55-75.05-189.05-68.24-70.64,5.83-91.87,71.95-151.11,90.37s-117.58-6.51-140.95-62.76c-31.91-76.81,38.55-130.79,3.84-203.88,52,7.67,112.2-22.45,107.49-81.96-2.21-27.9-20.59-45.12-44.61-55.85-13.94-6.23-37.77-9.97-48.64-16.58-9.14-5.55-7.87-18.14,3.34-21.05,23.78-6.18,39.05,19.85,63.61,7.2,21.72-11.19,17.27-42.89-1.28-55.34-17.14-11.5-55.22-12.91-75.31-10.68-78.31,8.69-96.52,102.04-19.16,135.12,10.78,4.61,69.56,16.94,44.41,36.42-22.7,17.58-52.66-18.88-74.6-16.51-19.51,2.11-28.67,20.48-25.76,38.66-87.45-28.47-113.48-138.65-39.6-199.12,59.84-48.98,139.86-11.42,181.28-91.93,13.29-25.83,12.65-50.39,19.59-77.36C279.08,11.86,446.22-25.25,537.48,82.13c27.99,32.93,37.35,68.81,80.51,88.71,66.08,30.47,123.23-12.48,189.91-3.07,135.14,19.08,180.09,184.64,81.28,274.76-2.34-45.97-20.29-92.11-64.9-111.35-31.79-13.71-65.45-11.36-95.15,5.95-3.02,1.76-11.91,9.61-13.54,8.46-11.95-35.96-66.18-28.27-68.84,9.63l.5,278.14c5.45,34.51,53.17,40.72,67.56,10.24.89-1.89,4.28-10.48,4.28-11.57v-96.06ZM291.37,544.16c20.57,22.05,58.4,10.39,62.69-19.81l.16-266.02c-4.79-44.33-68.32-43.53-72.26.03,5.39,84.29-7.24,177.69-.08,260.91.7,8.16,3.85,18.85,9.49,24.89ZM480.73,323.16c-81.55,9.21-125.34,98.71-89.28,171.15,50.05,100.55,211.77,80.35,231.97-33.75,15.91-89.81-57.41-147.03-142.69-137.4Z"/>
      <path class="cls-1" d="M471.91,788.5c9.14.02,26.95,4.1,25.14,16.16-.54,3.58-13.58,18.07-16.84,23.87-10.14,18.06-11.12,40.23-24.8,56.28-37.5,44.02-104.14-3.38-61.39-59.63,16.05-21.12,51.6-36.74,77.89-36.68Z"/>
      <path class="cls-1" d="M642.83.54c20.15-3.19,38.58,7.95,47.16,26.01,8.06,16.96,4.73,27.66,6.4,44.72,1.21,12.42,8.37,29.51,8.7,39.08.5,14.44-16.51,14.91-26.92,12.61-36.54-8.11-77.55-55.15-66.71-93.86,3.9-13.92,16.95-26.28,31.36-28.56Z"/>
      <path class="cls-1" d="M755.64,386.55c67.2-10.56,75.97,91.82,15.29,99.9-71.39,9.51-71.12-91.12-15.29-99.9Z"/>
      <path class="cls-1" d="M64.69,592.79c39.35-6.04,57.25,50.2,19.32,65.14-49.62,19.55-69.57-57.43-19.32-65.14Z"/>
      <path class="cls-1" d="M748.58,65.75c16.78-3.06,29.68,8.17,28.79,25.18-.71,13.61-12.73,21.26-25.76,20.33-27.78-2-27.21-41.1-3.04-45.5Z"/>
      <path class="cls-1" d="M531.83,814.77c24.28-2.81,37.21,33.41,12.57,44.44-34.03,15.23-48.44-40.28-12.57-44.44Z"/>
      <path class="cls-1" d="M500.12,388.38c60.08-.86,69.69,86.13,14.85,101.22-74.13,20.4-90.55-100.13-14.85-101.22Z"/>
    </g>
  </g>
</svg>