<?xml version="1.0" encoding="UTF-8"?>
<svg id="Layer_2" data-name="Layer 2" xmlns="http://www.w3.org/2000/svg" viewBox="0 0 853.8 817.18">
  <g id="Layer_1-2" data-name="Layer 1">
    <g>
      <path d="M651.39,485.5c12.91,8.43,27.45,14.95,43.11,15.98-6.23,17.52-8.02,36.44-6.37,55.05,1.58,17.71,11.04,36.67,13.94,54.72,12.76,79.39-57.29,127.61-130.89,114.92-65.67-11.32-96.52-67.99-171.26-61.81-63.99,5.28-83.22,65.17-136.89,81.86-51.86,16.12-106.51-5.9-127.68-56.85-28.91-69.58,34.92-118.47,3.48-184.69,47.11,6.95,101.64-20.34,97.37-74.24-2-25.28-18.66-40.87-40.41-50.6-12.63-5.65-34.21-9.03-44.06-15.02-8.28-5.03-7.13-16.43,3.02-19.07,21.54-5.59,35.37,17.98,57.62,6.52,19.67-10.14,15.65-38.85-1.16-50.13-15.53-10.42-50.02-11.7-68.22-9.68-70.94,7.87-87.44,92.44-17.36,122.4,9.77,4.18,63.01,15.34,40.23,32.99-20.56,15.93-47.71-17.1-67.58-14.95-17.68,1.91-25.97,18.55-23.33,35.02-79.22-25.79-102.8-125.6-35.87-180.37,54.21-44.37,126.69-10.34,164.22-83.27,12.04-23.4,11.46-45.65,17.75-70.07C252.81,10.74,404.22-22.88,486.88,74.4c25.35,29.83,33.83,62.33,72.93,80.36,59.86,27.6,111.63-11.31,172.03-2.78,122.42,17.28,163.14,167.26,73.63,248.89-2.12-41.64-18.38-83.44-58.79-100.87-28.8-12.42-59.29-10.29-86.19,5.39-2.74,1.6-10.79,8.71-12.27,7.66-10.83-32.58-59.95-25.61-62.36,8.72l.45,251.96c4.94,31.26,48.17,36.89,61.2,9.27.81-1.71,3.88-9.49,3.88-10.48v-87.02ZM263.95,492.93c18.63,19.98,52.91,9.41,56.79-17.95l.15-240.97c-4.34-40.16-61.89-39.43-65.46.03,4.88,76.36-6.56,160.96-.08,236.35.64,7.39,3.49,17.07,8.6,22.54ZM435.48,292.74c-73.87,8.34-113.54,89.42-80.88,155.04,45.34,91.08,191.83,72.79,210.14-30.57,14.41-81.36-52.01-133.19-129.26-124.47Z"/>
      <path d="M427.49,714.27c8.28.02,24.41,3.72,22.77,14.64-.49,3.24-12.3,16.37-15.25,21.62-9.18,16.36-10.07,36.44-22.46,50.98-33.97,39.88-94.34-3.06-55.61-54.01,14.54-19.13,46.74-33.28,70.55-33.23Z"/>
      <path d="M582.32.49c18.26-2.89,34.95,7.2,42.72,23.56,7.3,15.36,4.29,25.06,5.8,40.51,1.1,11.25,7.59,26.73,7.88,35.4.45,13.08-14.96,13.51-24.38,11.42-33.1-7.34-70.25-49.95-60.43-85.02,3.53-12.61,15.35-23.8,28.41-25.87Z"/>
      <path d="M684.51,350.17c60.87-9.57,68.82,83.17,13.85,90.49-64.67,8.61-64.42-82.54-13.85-90.49Z"/>
      <path d="M58.6,536.99c35.65-5.47,51.86,45.47,17.5,59.01-44.95,17.71-63.03-52.02-17.5-59.01Z"/>
      <path d="M678.11,59.56c15.2-2.77,26.89,7.41,26.08,22.81-.65,12.33-11.53,19.26-23.33,18.41-25.17-1.81-24.65-37.23-2.75-41.22Z"/>
      <path d="M481.77,738.07c21.99-2.55,33.71,30.26,11.39,40.25-30.83,13.79-43.88-36.49-11.39-40.25Z"/>
      <path d="M453.04,351.82c54.42-.78,63.13,78.02,13.45,91.69-67.15,18.48-82.03-90.71-13.45-91.69Z"/>
    </g>
  </g>
</svg>